# AST/ASF file generated using VICON BodyLanguage
# -----------------------------------------------
:version 1.10
:name VICON
:units
  mass 1.0
  length 0.45
  angle deg
:documentation
   .ast/.asf automatically generated from VICON data using
   VICON BodyBuilder and BodyLanguage model FoxedUp or BRILLIANT.MOD
:root
   order TX TY TZ RX RY RZ
   axis XYZ
   position 0 0 0  
   orientation 0 0 0 
:bonedata
  begin
     id 1 
     name lhipjoint
     direction 0.521452 -0.77106 0.36545 
     length 2.0933 
     axis 0 0 0  XYZ
  end
  begin
     id 2 
     name lfemur
     direction 0.34202 -0.939693 0  
     length 6.83441  
     axis 0 0 20  XYZ
    dof rx ry rz
    limits (-160.0 20.0)
           (-70.0 70.0)
           (-60.0 70.0)
  end
  begin
     id 3 
     name ltibia
     direction 0.34202 -0.939693 0   
     length 7.28749   
     axis 0 0 20   XYZ
    dof rx
    limits (-10.0 170.0)
  end
  begin
     id 4 
     name lfoot
     direction 0.100608 -0.276418 0.955757   
     length 1.52195   
     axis -90 7.62852e-016 20   XYZ
    dof rx rz
    limits (-45.0 90.0)
           (-70.0 20.0)
  end
  begin
     id 5 
     name ltoes
     direction 1.53558e-011 -4.21907e-011 1   
     length 0.770459   
     axis -90 7.62852e-016 20   XYZ
    dof rx
    limits (-90.0 20.0)
  end
  begin
     id 6 
     name rhipjoint
     direction -0.488071 -0.788702 0.373812   
     length 2.04648  
     axis 0 0 0  XYZ 
  end
  begin
     id 7 
     name rfemur
     direction -0.34202 -0.939693 0   
     length 6.92583   
     axis 0 0 -20   XYZ
    dof rx ry rz
    limits (-160.0 20.0)
           (-70.0 70.0)
           (-70.0 60.0)
  end
  begin
     id 8 
     name rtibia
     direction -0.34202 -0.939693 0   
     length 7.41043   
     axis 0 0 -20   XYZ
    dof rx
    limits (-10.0 170.0)
 end
 begin
     id 9 
     name rfoot
     direction -0.0784433 -0.215521 0.973343   
     length 1.67708  
     axis -90 -7.62852e-016 -20   XYZ
    dof rx rz
    limits (-45.0 90.0)
           (-20.0 70.0)
  end
  begin
     id 10 
     name rtoes
     direction -1.53551e-011 -4.21842e-011 1   
     length 0.849787   
     axis -90 -7.62852e-016 -20   XYZ
    dof rx
    limits (-90.0 20.0)
  end
  begin
     id 11 
     name lowerback
     direction -0.0122332 0.997575 -0.0685192   
     length 1.98724   
     axis 0 0 0   XYZ
    dof rx ry rz
    limits (-20.0 45.0)
           (-30.0 30.0)
           (-30.0 30.0)
  end
  begin
     id 12 
     name upperback
     direction 0.0182347 0.999724 -0.0148421   
     length 1.99029   
     axis 0 0 0   XYZ
    dof rx ry rz
    limits (-20.0 45.0)
           (-30.0 30.0)
           (-30.0 30.0)
  end
  begin
     id 13 
     name thorax
     direction 0.0242908 0.99956 0.0170184   
     length 1.99573   
     axis 0 0 0   XYZ
    dof rx ry rz
    limits (-20.0 45.0)
           (-30.0 30.0)
           (-30.0 30.0)
  end
  begin
     id 14 
     name lowerneck
     direction 0.0654488 0.985533 0.156338   
     length 1.4285   
     axis 0 0 0   XYZ
    dof rx ry rz
    limits (-20.0 45.0)
           (-30.0 30.0)
           (-30.0 30.0)
  end
  begin
     id 15 
     name upperneck
     direction -0.02953 0.998556 -0.0448842   
     length 1.44709   
     axis 0 0 0   XYZ
    dof rx ry rz
    limits (-20.0 45.0)
           (-30.0 30.0)
           (-30.0 30.0)
  end
  begin
     id 16
     name head
     direction -0.0155588 0.999386 -0.0314063  
     length 1.44689  
     axis 0 0 0   XYZ
    dof rx ry rz
    limits (-20.0 45.0)
           (-30.0 30.0)
           (-30.0 30.0)
  end
  begin
     id 17 
     name lclavicle
     direction 0.968229 0.236071 -0.0824755  
     length 3.60593  
     axis 0 0 0   XYZ
    dof ry rz
    limits (-20.0 10.0)
           (0.0 20.0)
  end
  begin
     id 18 
     name lhumerus
     direction 1 -4.48968e-011 7.8138e-029   
     length 5.06035   
     axis 180 -30 -90   XYZ
    dof rx ry rz
    limits (-60.0 90.0)
           (-90.0 90.0)
           (-90.0 90.0)
  end
  begin
     id 19
     name lradius
     direction 1 -4.48967e-011 9.02887e-028   
     length 3.1478   
     axis 180 -30 -90   XYZ
    dof rx
    limits (-10.0 170.0)
  end
  begin
     id 20
     name lwrist
     direction 1 -4.48961e-011 7.20928e-028   
     length 1.5739   
     axis -5.52449e-016 90 90   XYZ
    dof ry
    limits (-180.0 0.0)
 end
  begin
     id 21 
     name lhand
     direction 1 -4.48972e-011 1.44186e-027   
     length 0.606747   
     axis -9.20027e-016 90 90   XYZ
    dof rx rz
    limits (-90.0 90.0)
           (-45.0 45.0)
  end
  begin
     id 22 
     name lfingers
     direction 1 -4.48943e-011 2.88371e-027   
     length 0.489175   
     axis -1.84005e-015 90 90   XYZ
    dof rx
    limits (0.0 90.0)
  end
  begin
     id 23
     name lthumb
     direction 0.707107 -6.34917e-011 0.707107   
     length 0.70236   
     axis -90 45 2.85299e-015   XYZ
    dof rx rz
    limits (-45.0 45.0)
           (-45.0 45.0)
  end
  begin
     id 24 
     name rclavicle
     direction -0.978165 0.207816 0.0022268   
     length 3.35425  
     axis 0 0 0   XYZ 
    dof ry rz
    limits (-10.0 20.0)
           (-20.0 0.0)
  end
  begin
     id 25 
     name rhumerus
     direction -1 -4.48964e-011 -4.02159e-027  
     length 5.12273   
     axis 180 30 90   XYZ
    dof rx ry rz
    limits (-90.0 60.0)
           (-90.0 90.0)
           (-90.0 90.0)
  end
  begin
     id 26 
     name rradius
     direction -1 -4.48966e-011 1.62746e-027   
     length 3.422   
     axis 180 30 90   XYZ
    dof rx
    limits (-10.0 170.0)
  end
  begin
     id 27 
     name rwrist
     direction -1 -4.4896e-011 7.20928e-028   
     length 1.711   
     axis -5.52449e-016 -90 -90   XYZ
    dof ry
    limits (-180.0 0.0)
  end
  begin
     id 28
     name rhand
     direction -1 -4.48979e-011 1.44186e-027   
     length 0.704599   
     axis -9.20027e-016 -90 -90   XYZ
    dof rx rz
    limits (-90.0 90.0)
           (-45.0 45.0)
  end
  begin
     id 29
     name rfingers
     direction -1 -4.48962e-011 2.88371e-027   
     length 0.568066   
     axis -1.84005e-015 -90 -90   XYZ
    dof rx
    limits (0.0 90.0)
  end
  begin
     id 30
     name rthumb
     direction -0.707107 -6.34949e-011 0.707107   
     length 0.815633   
     axis -90 -45 -2.85299e-015   XYZ
    dof rx rz
    limits (-45.0 45.0)
           (-45.0 45.0)
  end
:hierarchy
  begin
    root lhipjoint rhipjoint lowerback
    lhipjoint lfemur
    lfemur ltibia
    ltibia lfoot
    lfoot ltoes
    rhipjoint rfemur
    rfemur rtibia
    rtibia rfoot
    rfoot rtoes
    lowerback upperback
    upperback thorax
    thorax lowerneck lclavicle rclavicle
    lowerneck upperneck
    upperneck head
    lclavicle lhumerus
    lhumerus lradius
    lradius lwrist
    lwrist lhand lthumb
    lhand lfingers
    rclavicle rhumerus
    rhumerus rradius
    rradius rwrist
    rwrist rhand rthumb
    rhand rfingers
  end

#!OML:ASF E:\id_vita\Project 1\Capture day 1\Session 1\Male1.ASF
:FULLY-SPECIFIED
:DEGREES
174
root -17.6805 16.134 2.99361 -172.34 61.0187 -177.245
lowerback -0.878782 -3.23821 -4.22217
upperback 4.7043 -4.22613 4.14091
thorax 6.04659 -2.35536 6.4566
lowerneck -8.61828 -10.226 1.26617
upperneck 35.336 -15.1746 5.30102
head 13.8211 -5.10121 -0.0741708
rclavicle 1.82882e-014 -3.02153e-014
rhumerus -23.0015 -18.3754 -77.7693
rradius 20.6667
rwrist 11.4212
rhand -17.7868 30.6835
rfingers 7.12502
rthumb 8.47606 0.873625
lclavicle 1.82882e-014 -3.02153e-014
lhumerus -33.2532 33.5229 73.7164
lradius 12.9394
lwrist -16.4872
lhand -11.3006 41.7006
lfingers 7.12502
lthumb 14.7309 71.1572
rfemur -7.5308 6.71527 26.6734
rtibia 21.8335
rfoot -16.8396 -8.57165
rtoes 0.707825
lfemur -21.3683 3.79441 -14.4753
ltibia 62.5402
lfoot -17.7779 -10.7842
ltoes -3.23136
175
root -17.6151 16.1252 2.97758 -172.653 61.3719 -177.622
lowerback -0.82804 -3.18776 -4.46265
upperback 4.66153 -4.15291 4.10202
thorax 5.9778 -2.3285 6.56109
lowerneck -8.64579 -10.3096 1.20724
upperneck 35.5169 -15.2257 5.08031
head 13.8898 -5.14714 -0.160632
rclavicle 1.0476e-013 -5.40694e-014
rhumerus -23.0494 -17.7634 -77.8458
rradius 21.1431
rwrist 11.0651
rhand -18.745 29.8082
rfingers 7.12502
rthumb 7.55129 -0.037045
lclavicle 1.0476e-013 -5.40694e-014
lhumerus -34.8992 37.132 71.0832
lradius 12.4096
lwrist -20.5509
lhand -11.3055 41.1708
lfingers 7.12502
lthumb 14.7262 70.6277
rfemur -7.31306 6.99087 26.5523
rtibia 21.9193
rfoot -16.9693 -8.72044
rtoes 0.297686
lfemur -22.4631 3.38855 -15.1065
ltibia 62.6897
lfoot -18.4494 -10.9013
ltoes -1.65595
176
root -17.5495 16.1171 2.96436 -172.768 61.7386 -177.818
lowerback -1.03255 -3.26162 -3.97573
upperback 4.79419 -4.24994 3.62485
thorax 6.16535 -2.34775 5.75299
lowerneck -8.87853 -9.97762 1.32653
upperneck 35.5164 -14.9253 5.45655
head 13.9663 -4.94755 -0.00476081
rclavicle -3.11098e-014 1.23246e-014
rhumerus -22.8048 -17.1687 -78.8086
rradius 21.555
rwrist 10.5846
rhand -19.1392 29.7871
rfingers 7.12502
rthumb 7.17076 -0.0714348
lclavicle -3.11098e-014 1.23246e-014
lhumerus -35.4989 37.8032 69.6505
lradius 12.3761
lwrist -21.1836
lhand -11.343 41.1117
lfingers 7.12502
lthumb 14.6901 70.5713
rfemur -7.1369 7.29382 26.5374
rtibia 21.9655
rfoot -17.5096 -8.82067
rtoes -0.692104
lfemur -23.5422 2.87842 -15.5782
ltibia 62.7261
lfoot -18.8609 -11.06
ltoes -0.75678
177
root -17.486 16.1094 2.94927 -172.645 62.1158 -177.726
lowerback -1.07402 -3.26346 -3.42168
upperback 4.8595 -4.25923 3.25289
thorax 6.17829 -2.31597 5.04023
lowerneck -9.11923 -9.76327 1.35439
upperneck 35.5956 -14.7732 5.81788
head 14.0928 -4.81672 0.139718
rclavicle 2.98177e-015 5.40694e-014
rhumerus -22.7257 -16.3852 -79.5659
rradius 22.1295
rwrist 9.85095
rhand -19.2187 29.7096
rfingers 7.12502
rthumb 7.09401 -0.151538
lclavicle 2.98177e-015 5.40694e-014
lhumerus -35.7231 37.6469 68.9163
lradius 12.3011
lwrist -20.9384
lhand -11.3302 41.2577
lfingers 7.12502
lthumb 14.7024 70.7164
rfemur -6.94654 7.46778 26.6536
rtibia 22.01
rfoot -18.0467 -8.72593
rtoes -0.900936
lfemur -24.5864 2.35813 -15.8829
ltibia 62.6314
lfoot -19.2347 -11.18
ltoes -0.869613
178
root -17.4233 16.095 2.93195 -172.719 62.5195 -177.748
lowerback -0.731174 -3.01051 -3.95884
upperback 4.70354 -3.92062 3.60439
thorax 5.84695 -2.1741 5.76339
lowerneck -8.90376 -9.96558 1.27837
upperneck 35.5239 -14.8959 5.4317
head 13.9754 -4.94372 -0.00429366
rclavicle 4.80065e-014 -3.45885e-014
rhumerus -22.9322 -15.7918 -78.8561
rradius 22.568
rwrist 9.26886
rhand -19.6983 31.3568
rfingers 7.12502
rthumb 6.63105 1.48066
lclavicle 4.80065e-014 -3.45885e-014
lhumerus -36.8532 39.1421 67.9745
lradius 11.9262
lwrist -22.8378
lhand -10.9589 41.1807
lfingers 7.12502
lthumb 15.0601 70.6129
rfemur -6.60751 7.81451 26.7183
rtibia 22.0318
rfoot -18.2413 -8.66447
rtoes 1.12788
lfemur -25.4219 1.92502 -16.2821
ltibia 62.376
lfoot -19.9058 -10.6783
ltoes -3.35153
179
root -17.3557 16.0828 2.91628 -172.698 62.947 -177.659
lowerback -0.598721 -2.87665 -3.94065
upperback 4.70486 -3.7435 3.59607
thorax 5.74605 -2.08223 5.76303
lowerneck -9.06874 -9.93621 1.35533
upperneck 35.5926 -14.8156 5.1896
head 14.0043 -4.92468 -0.109302
rclavicle -6.98728e-014 -1.98785e-014
rhumerus -22.9592 -15.6653 -78.7658
rradius 22.906
rwrist 9.17463
rhand -19.2289 30.996
rfingers 7.12502
rthumb 7.08421 1.13452
lclavicle -6.98728e-014 -1.98785e-014
lhumerus -37.6991 40.0096 66.8849
lradius 11.7117
lwrist -23.9506
lhand -10.3864 40.9729
lfingers 7.12502
lthumb 15.6116 70.3629
rfemur -6.23381 8.28953 26.8587
rtibia 22.0261
rfoot -18.3968 -8.67976
rtoes 3.40851
lfemur -26.2431 1.53295 -16.6431
ltibia 61.9713
lfoot -20.4356 -9.74514
ltoes -7.90317
180
root -17.2891 16.071 2.90032 -172.474 63.3303 -177.47
lowerback -0.607229 -2.76079 -3.83668
upperback 4.69136 -3.59164 3.58967
thorax 5.70749 -2.00051 5.70748
lowerneck -9.06384 -9.91832 1.24973
upperneck 35.5518 -14.7816 5.23035
head 13.9972 -4.92295 -0.0719706
rclavicle 6.55989e-015 -1.74931e-014
rhumerus -23.0793 -15.0944 -78.7934
rradius 23.5027
rwrist 8.54812
rhand -19.3486 30.6012
rfingers 7.12502
rthumb 6.96865 0.735947
lclavicle 6.55989e-015 -1.74931e-014
lhumerus -38.2937 40.3247 66.2112
lradius 11.5867
lwrist -24.4546
lhand -10.116 40.7164
lfingers 7.12502
lthumb 15.8719 70.0859
rfemur -5.95864 8.55992 27.0076
rtibia 21.94
rfoot -18.435 -8.48778
rtoes 4.03044
lfemur -27.1959 1.00805 -16.9179
ltibia 61.4101
lfoot -20.8267 -9.35967
ltoes -7.48988
181
root -17.2218 16.0607 2.88216 -172.295 63.7107 -177.386
lowerback -0.717115 -2.71074 -3.693
upperback 4.70336 -3.52574 3.50963
thorax 5.75763 -1.96074 5.54039
lowerneck -8.98671 -9.79171 1.17655
upperneck 35.4304 -14.6225 5.38247
head 13.9432 -4.8569 0.0262967
rclavicle -4.67144e-015 -2.62396e-014
rhumerus -22.9312 -14.2986 -79.0603
rradius 23.8021
rwrist 7.93297
rhand -19.5541 30.701
rfingers 7.12502
rthumb 6.77028 0.829209
lclavicle -4.67144e-015 -2.62396e-014
lhumerus -38.8571 40.6686 65.4411
lradius 11.5179
lwrist -24.7571
lhand -10.0186 40.7897
lfingers 7.12502
lthumb 15.9658 70.1517
rfemur -5.64711 8.69293 27.0763
rtibia 21.68
rfoot -18.2292 -8.24715
rtoes 3.51288
lfemur -28.1475 0.466636 -17.2006
ltibia 60.7141
lfoot -21.2409 -8.92342
ltoes -8.1155
182
root -17.1526 16.066 2.86559 -172.193 64.574 -177.454
lowerback -0.758114 -2.49287 -3.81037
upperback 4.63113 -3.23182 3.46435
thorax 5.67067 -1.81747 5.5785
lowerneck -9.27269 -9.65522 1.27951
upperneck 35.6023 -14.4317 5.21832
head 14.0505 -4.76329 -0.0429453
rclavicle -6.39093e-014 5.36719e-014
rhumerus -22.865 -13.6871 -79.1588
rradius 24.022
rwrist 7.58998
rhand -18.9793 30.9545
rfingers 7.12502
rthumb 7.32515 1.10132
lclavicle -6.39093e-014 5.36719e-014
lhumerus -39.7594 41.226 64.3803
lradius 11.4386
lwrist -25.3063
lhand -9.70627 40.6228
lfingers 7.12502
lthumb 16.2665 69.9604
rfemur -5.36678 8.83445 26.9705
rtibia 21.2752
rfoot -18.4293 -7.76682
rtoes 2.14705
lfemur -29.1435 0.414195 -17.6653
ltibia 59.9052
lfoot -20.6174 -8.33323
ltoes -5.35434
183
root -17.0818 16.0748 2.84931 -172.504 65.0916 -177.779
lowerback -0.678426 -2.37444 -3.89167
upperback 4.63393 -3.06858 3.31277
thorax 5.60153 -1.73552 5.47761
lowerneck -9.09096 -9.68874 1.18734
upperneck 35.3256 -14.5388 5.51505
head 13.9298 -4.81078 0.081556
rclavicle 2.51463e-014 3.57812e-015
rhumerus -22.908 -13.2719 -79.3339
rradius 24.4119
rwrist 7.28008
rhand -18.3053 33.3785
rfingers 7.12502
rthumb 7.97564 3.54898
lclavicle 2.51463e-014 3.57812e-015
lhumerus -39.3577 39.8075 65.2847
lradius 11.4269
lwrist -22.6419
lhand -11.3336 40.8385
lfingers 7.12502
lthumb 14.6991 70.2974
rfemur -4.8536 8.74492 26.8327
rtibia 20.8231
rfoot -19.1406 -7.1851
rtoes 2.4457
lfemur -29.9858 0.141367 -18.218
ltibia 58.9562
lfoot -21.0981 -8.68575
ltoes -5.44075
184
root -17.0116 16.0786 2.83216 -172.191 65.6302 -177.568
lowerback -0.777343 -2.31155 -3.60029
upperback 4.69169 -2.98642 3.15041
thorax 5.67966 -1.6799 5.14122
lowerneck -9.0334 -9.3523 1.1052
upperneck 35.1857 -14.1389 5.88303
head 13.8873 -4.61206 0.299708
rclavicle -4.87022e-015 1.47101e-014
rhumerus -22.7725 -12.6856 -79.7384
rradius 24.828
rwrist 7.00554
rhand -19.2963 32.2537
rfingers 7.12502
rthumb 7.01917 2.39008
lclavicle -4.87022e-015 1.47101e-014
lhumerus -39.6035 40.0571 64.6726
lradius 11.3709
lwrist -22.4112
lhand -11.1016 41.0268
lfingers 7.12502
lthumb 14.9226 70.4692
rfemur -4.53379 8.84553 26.8867
rtibia 20.4653
rfoot -19.5893 -6.5408
rtoes 3.90735
lfemur -30.8922 -0.114853 -18.4527
ltibia 57.8652
lfoot -21.3939 -8.36922
ltoes -4.21964
